<?xml version="1.0" encoding="utf-8"?>
<!-- Generator: Adobe Illustrator 21.1.0, SVG Export Plug-In . SVG Version: 6.00 Build 0)  -->
<svg version="1.1" id="Layer_1" xmlns="http://www.w3.org/2000/svg" xmlns:xlink="http://www.w3.org/1999/xlink" x="0px" y="0px"
	 viewBox="0 0 24 24" style="enable-background:new 0 0 24 24;" xml:space="preserve">
<style type="text/css">
	.st0{fill:#FFFFFF;}
</style>
<path class="st0" d="M20,2H8C6.9,2,6,2.9,6,4v12c0,1.1,0.9,2,2,2h12c1.1,0,2-0.9,2-2V4C22,2.9,21.1,2,20,2z M18,7h-3v5.5
	c0,1.4-1.1,2.5-2.5,2.5S10,13.9,10,12.5s1.1-2.5,2.5-2.5c0.6,0,1.1,0.2,1.5,0.5V5h4V7z M4,6H2v14c0,1.1,0.9,2,2,2h14v-2H4V6z"/>
</svg>
