<?xml version="1.0" encoding="utf-8"?>
<!-- Generator: Adobe Illustrator 21.1.0, SVG Export Plug-In . SVG Version: 6.00 Build 0)  -->
<svg version="1.1" id="Layer_1" xmlns="http://www.w3.org/2000/svg" xmlns:xlink="http://www.w3.org/1999/xlink" x="0px" y="0px"
	 viewBox="0 0 24 24" style="enable-background:new 0 0 24 24;" xml:space="preserve">
<style type="text/css">
	.st0{fill:#FFFFFF;}
</style>
<path class="st0" d="M18,4l2,3h-3l-2-3h-2l2,3h-3l-2-3H8l2,3H7L5,4H4C2.9,4,2,4.9,2,6v12c0,1.1,0.9,2,2,2h16c1.1,0,2-0.9,2-2V4H18z
	 M11.2,15.2L10,18l-1.2-2.8L6,14l2.8-1.2L10,10l1.2,2.8L14,14L11.2,15.2z M16.9,11.9L16,14l-0.9-2.1L13,11l2.1-0.9L16,8l0.9,2.1
	L19,11L16.9,11.9z"/>
</svg>
