<svg id="Layer_1" data-name="Layer 1" xmlns="http://www.w3.org/2000/svg" viewBox="0 0 795.17 215.44">
  <defs>
    <style>
      .cls-1 {
        fill: #f2c8a2;
        stroke: #f2c8a2;
        stroke-linecap: round;
        stroke-linejoin: round;
        stroke-width: 2px;
      }
    </style>
  </defs>
  <title>roku_logo1</title>
  <g id="Layer_1-2" data-name="Layer 1">
    <g>
      <path class="cls-1" d="M28.87,103.72a3.74,3.74,0,0,0,5.13,0,3.39,3.39,0,0,0,.14-4.79L34,98.79l-3.86-3.68L34,91.4a3.4,3.4,0,0,0,.13-4.81L34,86.46a3.74,3.74,0,0,0-5.13,0L25,90.11l-3.86-3.72a3.72,3.72,0,0,0-5.12,0,3.4,3.4,0,0,0-.13,4.81l.13.13L19.89,95,16,98.76a3.39,3.39,0,0,0-.14,4.79l.14.14a3.72,3.72,0,0,0,5.12,0L25,100Z" transform="translate(-13.13 -0.05)"/>
      <path class="cls-1" d="M186.28,187.61a3.72,3.72,0,0,0-5.13,0l-3.86,3.71-3.89-3.71a3.7,3.7,0,0,0-5.12,0,3.39,3.39,0,0,0-.14,4.79l.14.14,3.86,3.72L168.28,200a3.4,3.4,0,0,0-.13,4.81l.13.13a3.72,3.72,0,0,0,5.12,0l3.86-3.72,3.86,3.72a3.74,3.74,0,0,0,5.13,0,3.4,3.4,0,0,0,.13-4.81l-.13-.13-3.85-3.71,3.86-3.72a3.39,3.39,0,0,0,.14-4.79l-.14-.14Z" transform="translate(-13.13 -0.05)"/>
      <path class="cls-1" d="M81.29,33.94a3.74,3.74,0,0,0,5.13,0l3.86-3.72,3.86,3.72a3.72,3.72,0,0,0,5.12,0,3.4,3.4,0,0,0,.13-4.81L99.26,29,95.4,25.29l3.86-3.72a3.39,3.39,0,0,0,.14-4.79l-.14-.14a3.72,3.72,0,0,0-5.12,0l-3.86,3.71L86.4,16.64a3.74,3.74,0,0,0-5.13,0,3.39,3.39,0,0,0-.14,4.79l.14.14,3.86,3.72L81.27,29a3.4,3.4,0,0,0-.13,4.81l.13.13Z" transform="translate(-13.13 -0.05)"/>
      <ellipse class="cls-1" cx="11.88" cy="197.93" rx="3.63" ry="3.49"/>
      <ellipse class="cls-1" cx="44.51" cy="58.37" rx="3.63" ry="3.49"/>
      <ellipse class="cls-1" cx="4.63" cy="19.99" rx="3.63" ry="3.49"/>
      <ellipse class="cls-1" cx="196.79" cy="173.51" rx="3.63" ry="3.49"/>
      <ellipse class="cls-1" cx="200.42" cy="33.94" rx="3.63" ry="3.49"/>
      <path class="cls-1" d="M198.06,125l-69.23,66.62c-22,21.18-57.84,21.18-79.86,0A53,53,0,0,1,47,116.7q.94-1,1.93-1.93L149,18.55a3.39,3.39,0,0,0,.14-4.79l-.14-.14a3.72,3.72,0,0,0-5.12,0l-100,96.22a59.76,59.76,0,0,0-2.24,84.48q1.09,1.15,2.24,2.24a65.57,65.57,0,0,0,90.11,0l69.22-66.61a3.4,3.4,0,0,0,.13-4.81l-.13-.13a3.72,3.72,0,0,0-5.12,0Z" transform="translate(-13.13 -0.05)"/>
      <path class="cls-1" d="M175.5,24a3.67,3.67,0,0,0,2.56-1L194.73,7a3.41,3.41,0,0,0,.12-4.82l-.12-.12a3.74,3.74,0,0,0-5.13,0l-16.66,16a3.4,3.4,0,0,0-.13,4.81l.13.13A3.68,3.68,0,0,0,175.5,24Z" transform="translate(-13.13 -0.05)"/>
      <path class="cls-1" d="M91.47,101.39a3.74,3.74,0,0,0,5.13,0l66-63.54a3.41,3.41,0,0,0,.12-4.82l-.12-.12a3.74,3.74,0,0,0-5.13,0l-66,63.55a3.39,3.39,0,0,0-.14,4.79l.14.14Z" transform="translate(-13.13 -0.05)"/>
      <path class="cls-1" d="M192.74,63.11l-6.34,6.18a3.39,3.39,0,0,0-.14,4.79l.14.14a3.7,3.7,0,0,0,5.12,0l6.38-6.14a3.39,3.39,0,0,0,.14-4.79l-.14-.14A3.72,3.72,0,0,0,192.74,63.11Z" transform="translate(-13.13 -0.05)"/>
      <path class="cls-1" d="M141.46,117.43a3.74,3.74,0,0,0,5.13,0l29-28a3.4,3.4,0,0,0,.12-4.81l-.12-.12a3.74,3.74,0,0,0-5.13,0l-29,28a3.41,3.41,0,0,0-.12,4.82l.12.12Z" transform="translate(-13.13 -0.05)"/>
      <path class="cls-1" d="M146.59,77.95a3.74,3.74,0,0,0-5.13,0l-28.2,27.16a3.39,3.39,0,0,0-.14,4.79l.14.14a3.71,3.71,0,0,0,5.13,0l28.2-27.14a3.39,3.39,0,0,0,.14-4.79l-.14-.14Z" transform="translate(-13.13 -0.05)"/>
      <path class="cls-1" d="M237.6,59.45a3.72,3.72,0,0,0-5.12,0l-83.33,80.18a3.4,3.4,0,0,0-.12,4.81l.12.12a3.71,3.71,0,0,0,5.13,0L237.6,64.38a3.39,3.39,0,0,0,.14-4.79Z" transform="translate(-13.13 -0.05)"/>
      <path class="cls-1" d="M118.45,130.35a6.61,6.61,0,0,0-6.45-2.42l-20.26,3.65-14.62-14a6.69,6.69,0,0,0-6.72-1.47A6.35,6.35,0,0,0,66,121.26L63.4,140.93l-18.33,9a6.2,6.2,0,0,0,.18,11.31l18.62,8.5,3.28,19.58a6.37,6.37,0,0,0,4.54,5,6.91,6.91,0,0,0,2,.28,6.6,6.6,0,0,0,4.74-2l14.16-14.41,20.36,3a6.63,6.63,0,0,0,6.37-2.6,6,6,0,0,0,.39-6.65l-9.87-17.42,9.31-17.69a6.09,6.09,0,0,0-.6-6.63Zm-16,22.81a3.33,3.33,0,0,0,.06,3.24l10.1,17.83-20.89-3.12a3.68,3.68,0,0,0-3.19,1L74,186.92l-3.35-20a3.5,3.5,0,0,0-2-2.6l-19.07-8.7L68.4,146.3a3.51,3.51,0,0,0,1.94-2.65L73,123.5l15,14.33a3.71,3.71,0,0,0,3.22,1L112,135Z" transform="translate(-13.13 -0.05)"/>
      <ellipse class="cls-1" cx="77.14" cy="149.08" rx="3.62" ry="3.49"/>
      <ellipse class="cls-1" cx="62.64" cy="156.06" rx="3.62" ry="3.49"/>
      <path class="cls-1" d="M91.55,157.58a3.67,3.67,0,0,0-4.79,1.74,1.5,1.5,0,0,1-2,.71h0a3.7,3.7,0,0,0-4.8,1.74,3.45,3.45,0,0,0,1.7,4.57l.11,0a9,9,0,0,0,3.63.72,8.78,8.78,0,0,0,8-5,3.43,3.43,0,0,0-1.68-4.55l-.14-.06Z" transform="translate(-13.13 -0.05)"/>
    </g>
  </g>
  <g id="Layer_2" data-name="Layer 2">
    <g>
      <path class="cls-1" d="M292,149.34h-5.12V73.79h44.94V79H292v39.15H327.4v5.21H292Z" transform="translate(-13.13 -0.05)"/>
      <path class="cls-1" d="M382.49,149.2H343.06V73.69h5.11V143.9h34.27Z" transform="translate(-13.13 -0.05)"/>
      <path class="cls-1" d="M393.36,149.11,423.71,72.8l30,76.31h-5.54l-6.43-16.3H405.44l-6.53,16.3Zm14.14-21.53h32.16l-16-40.7Z" transform="translate(-13.13 -0.05)"/>
      <path class="cls-1" d="M476.37,143.9a16,16,0,0,0,15.29-12.1,16.4,16.4,0,0,0-7.51-18.3l-17-10a16.09,16.09,0,0,1-7.19-18,15.76,15.76,0,0,1,15.13-11.87h1.63a15.6,15.6,0,0,1,13.49,7.87l-4.44,2.66a10.47,10.47,0,0,0-9-5.21h-1.63A10.42,10.42,0,0,0,465,86.89,10.9,10.9,0,0,0,469.92,99l17,10a21.75,21.75,0,0,1,9.79,24.3,21.26,21.26,0,0,1-20.43,15.95H476a21,21,0,0,1-16.86-8.65l4.13-3.22A15.89,15.89,0,0,0,476,143.88Z" transform="translate(-13.13 -0.05)"/>
      <path class="cls-1" d="M513.56,123.37v25.74h-5.11V73.58h5.11v44.47h41.23V73.58h5.11v75.53h-5.11V123.37Z" transform="translate(-13.13 -0.05)"/>
      <path class="cls-1" d="M622.68,124.15a24.76,24.76,0,0,1-24.49,25h-27.3V73.58H598a15.17,15.17,0,0,1,14.25,10.2,15.53,15.53,0,0,1-4.79,17.08,25.24,25.24,0,0,1,15.34,23.29ZM575.94,99h22a10.09,10.09,0,0,0,10-10A10.21,10.21,0,0,0,605,81.9a9.81,9.81,0,0,0-7-3H576Zm0,44.68h22.18a19.75,19.75,0,0,0,0-39.49H575.94Z" transform="translate(-13.13 -0.05)"/>
      <path class="cls-1" d="M628.22,149.11,658.56,72.8l30,76.31H683l-6.42-16.3H640.26l-6.52,16.3Zm14.14-21.53h32.16l-16-40.7Z" transform="translate(-13.13 -0.05)"/>
      <path class="cls-1" d="M725.79,144A31.47,31.47,0,0,0,746,136.58l3.26,4.1a36.67,36.67,0,0,1-44.16,2.22,38.2,38.2,0,0,1-15-42.37,36.7,36.7,0,0,1,58.2-18.85l-3.15,4.1a31.53,31.53,0,0,0-19.58-6.88c-17.62,0-31.87,14.53-31.87,32.49s14.25,32.5,31.87,32.5Z" transform="translate(-13.13 -0.05)"/>
      <path class="cls-1" d="M774.45,111.73l32.85,37.38h-7L771,115.72l-5.66,6.54v26.85H760.2V73.58h5.11v40.59l35-40.59h6.85Z" transform="translate(-13.13 -0.05)"/>
    </g>
  </g>
</svg>
