<svg id="Layer_1" data-name="Layer 1" xmlns="http://www.w3.org/2000/svg" viewBox="0 0 773.17 215.44">
  <defs>
    <style>
      .cls-1 {
        fill: #f2c8a2;
      }
    </style>
  </defs>
  <g id="Layer_1-2" data-name="Layer 1-2">
    <g>
      <g>
        <path class="cls-1" d="M15.74,103.67a3.74,3.74,0,0,0,5.13,0A3.39,3.39,0,0,0,21,98.88l-.14-.14L17,95.06l3.86-3.71A3.41,3.41,0,0,0,21,86.54h0l-.13-.13a3.74,3.74,0,0,0-5.13,0l-3.87,3.65L8,86.34a3.72,3.72,0,0,0-5.12,0,3.41,3.41,0,0,0-.13,4.81h0l.13.13L6.76,95,2.87,98.71a3.39,3.39,0,0,0-.14,4.79l.14.14a3.72,3.72,0,0,0,5.12,0L11.87,100Z" transform="translate(0 0.01)"/>
        <path class="cls-1" d="M18.3,105.69a4.74,4.74,0,0,1-3.25-1.29h0l-3.18-3.06-3.19,3a4.73,4.73,0,0,1-6.5,0L2,104.21A4.41,4.41,0,0,1,2.18,98l3.13-3-3.26-3.1,0-.06a4.41,4.41,0,0,1,.2-6.19,4.74,4.74,0,0,1,6.5,0l3.18,3.07,3.17-3a4.75,4.75,0,0,1,6.51,0l.15.15a4.42,4.42,0,0,1-.15,6.25l-3.1,3,3.26,3.11a4.41,4.41,0,0,1-.16,6.23A4.76,4.76,0,0,1,18.3,105.69ZM16.43,103a2.74,2.74,0,0,0,3.75,0,2.38,2.38,0,0,0,.1-3.37l-.12-.12-3.84-3.67a1,1,0,0,1-.31-.72,1,1,0,0,1,.31-.72l3.86-3.71a2.41,2.41,0,0,0,.1-3.4l-.12-.11a2.73,2.73,0,0,0-3.73,0l-3.87,3.65a1,1,0,0,1-1.38,0L7.32,87.06a2.72,2.72,0,0,0-3.74,0,2.4,2.4,0,0,0-.1,3.39l.12.11,3.85,3.65a1,1,0,0,1,0,1.45L3.56,99.43a2.39,2.39,0,0,0-.1,3.38l.12.12a2.7,2.7,0,0,0,3.72,0l3.88-3.68a1,1,0,0,1,1.38,0Z" transform="translate(0 0.01)"/>
      </g>
      <g>
        <path class="cls-1" d="M173.15,187.56a3.72,3.72,0,0,0-5.13,0l-3.86,3.71-3.89-3.71a3.7,3.7,0,0,0-5.12,0,3.39,3.39,0,0,0-.14,4.79l.14.14,3.86,3.72L155.15,200a3.41,3.41,0,0,0-.13,4.81h0l.13.13a3.72,3.72,0,0,0,5.12,0l3.86-3.72,3.86,3.72a3.74,3.74,0,0,0,5.13,0,3.41,3.41,0,0,0,.13-4.81h0l-.13-.13-3.85-3.71,3.86-3.72a3.39,3.39,0,0,0,.14-4.79l-.14-.14Z" transform="translate(0 0.01)"/>
        <path class="cls-1" d="M157.71,206.91a4.72,4.72,0,0,1-3.25-1.29l-.13-.14,0,0a4.41,4.41,0,0,1,.15-6.24l3.11-3-3.27-3.15a4.42,4.42,0,0,1,.16-6.23,4.69,4.69,0,0,1,6.5,0l3.2,3,3.17-3a4.72,4.72,0,0,1,6.51,0,1.25,1.25,0,0,1,.18.24,4.41,4.41,0,0,1-.2,6.18l-3.11,3,3.25,3.13,0,0a4.41,4.41,0,0,1-.18,6.21,4.75,4.75,0,0,1-6.51,0l-3.17-3.06L161,205.61A4.68,4.68,0,0,1,157.71,206.91Zm-2-2.86.13.13a2.7,2.7,0,0,0,3.72,0l3.86-3.71a1,1,0,0,1,1.38,0l3.86,3.72a2.74,2.74,0,0,0,3.75,0,2.36,2.36,0,0,0,.75-1.67,2.39,2.39,0,0,0-.65-1.72l0,0-.1-.09-3.83-3.7a1,1,0,0,1,0-1.44l3.86-3.72a2.39,2.39,0,0,0,.1-3.38l-.12-.12a1.83,1.83,0,0,1-.13-.16,2.71,2.71,0,0,0-3.58.14L164.85,192a1,1,0,0,1-1.38,0l-3.89-3.71a2.71,2.71,0,0,0-3.74,0,2.39,2.39,0,0,0-.1,3.38l.12.12,3.84,3.71a1,1,0,0,1,.31.72,1,1,0,0,1-.3.72l-3.86,3.74a2.39,2.39,0,0,0-.12,3.38Z" transform="translate(0 0.01)"/>
      </g>
      <g>
        <path class="cls-1" d="M68.16,33.89a3.74,3.74,0,0,0,5.13,0l3.86-3.72L81,33.89a3.72,3.72,0,0,0,5.12,0,3.41,3.41,0,0,0,.13-4.81h0L86.13,29l-3.86-3.71,3.86-3.72a3.39,3.39,0,0,0,.14-4.79l-.14-.14a3.72,3.72,0,0,0-5.12,0L77.15,20.3l-3.88-3.71a3.74,3.74,0,0,0-5.13,0A3.39,3.39,0,0,0,68,21.38l.14.14L72,25.24,68.14,29A3.41,3.41,0,0,0,68,33.76h0l.13.13Z" transform="translate(0 0.01)"/>
        <path class="cls-1" d="M83.57,35.91a4.72,4.72,0,0,1-3.25-1.29l-3.17-3.06L74,34.61a4.74,4.74,0,0,1-6.38.12,1.09,1.09,0,0,1-.17-.13l-.13-.13,0,0a4.41,4.41,0,0,1,.18-6.21l3.11-3-3.27-3.15a4.41,4.41,0,0,1,.16-6.23,4.75,4.75,0,0,1,6.51,0l3.19,3.05,3.17-3a4.73,4.73,0,0,1,6.5,0L87,16a4.41,4.41,0,0,1-.16,6.23l-3.11,3L87,28.37l.06.06a4.4,4.4,0,0,1-.2,6.19A4.72,4.72,0,0,1,83.57,35.91Zm-6.42-6.74a1,1,0,0,1,.69.28l3.86,3.72a2.72,2.72,0,0,0,3.74,0,2.4,2.4,0,0,0,.11-3.38l-.13-.12L81.58,26a1,1,0,0,1,0-1.44l3.86-3.72a2.39,2.39,0,0,0,.1-3.38l-.12-.12a2.7,2.7,0,0,0-3.72,0L77.84,21a1,1,0,0,1-1.38,0l-3.88-3.71a2.74,2.74,0,0,0-3.75,0,2.38,2.38,0,0,0-.1,3.37l.12.12,3.84,3.71a1,1,0,0,1,0,1.44l-3.86,3.71a2.42,2.42,0,0,0-.1,3.4h0l.11.08a2.74,2.74,0,0,0,3.75,0l3.86-3.71A1,1,0,0,1,77.15,29.17Z" transform="translate(0 0.01)"/>
      </g>
      <g>
        <ellipse class="cls-1" cx="11.88" cy="197.94" rx="3.63" ry="3.49"/>
        <path class="cls-1" d="M11.88,202.42a4.49,4.49,0,1,1,0-9,4.49,4.49,0,1,1,0,9Zm0-7a2.49,2.49,0,1,0,0,5,2.49,2.49,0,1,0,0-5Z" transform="translate(0 0.01)"/>
      </g>
      <g>
        <ellipse class="cls-1" cx="44.51" cy="58.38" rx="3.63" ry="3.49"/>
        <path class="cls-1" d="M44.51,62.86a4.49,4.49,0,1,1,4.63-4.49A4.57,4.57,0,0,1,44.51,62.86Zm0-7a2.49,2.49,0,1,0,2.63,2.49A2.57,2.57,0,0,0,44.51,55.88Z" transform="translate(0 0.01)"/>
      </g>
      <g>
        <ellipse class="cls-1" cx="4.63" cy="20" rx="3.63" ry="3.49"/>
        <path class="cls-1" d="M4.63,24.48a4.49,4.49,0,1,1,0-9,4.49,4.49,0,1,1,0,9Zm0-7a2.49,2.49,0,1,0,0,5,2.49,2.49,0,1,0,0-5Z" transform="translate(0 0.01)"/>
      </g>
      <g>
        <ellipse class="cls-1" cx="196.79" cy="173.52" rx="3.63" ry="3.49"/>
        <path class="cls-1" d="M196.79,178a4.49,4.49,0,1,1,4.63-4.49A4.57,4.57,0,0,1,196.79,178Zm0-7a2.49,2.49,0,1,0,2.63,2.49A2.57,2.57,0,0,0,196.79,171Z" transform="translate(0 0.01)"/>
      </g>
      <g>
        <ellipse class="cls-1" cx="200.42" cy="33.95" rx="3.63" ry="3.49"/>
        <path class="cls-1" d="M200.42,38.43a4.49,4.49,0,1,1,4.63-4.49A4.57,4.57,0,0,1,200.42,38.43Zm0-7a2.49,2.49,0,1,0,2.63,2.49A2.57,2.57,0,0,0,200.42,31.45Z" transform="translate(0 0.01)"/>
      </g>
      <g>
        <path class="cls-1" d="M184.93,125,115.7,191.57c-22,21.18-57.84,21.18-79.86,0a53,53,0,0,1-2-74.92c.63-.67,1.27-1.31,1.93-1.93L135.87,18.5a3.39,3.39,0,0,0,.14-4.79l-.14-.14a3.72,3.72,0,0,0-5.12,0l-100,96.22a59.75,59.75,0,0,0-2.24,84.48c.73.77,1.47,1.51,2.24,2.24a65.57,65.57,0,0,0,90.11,0l69.22-66.61a3.41,3.41,0,0,0,.13-4.81h0l-.13-.13a3.72,3.72,0,0,0-5.12,0Z" transform="translate(0 0.01)"/>
        <path class="cls-1" d="M75.8,215.43a66.38,66.38,0,0,1-45.74-18.19c-.78-.74-1.54-1.51-2.28-2.28a60.84,60.84,0,0,1,2.28-85.9l100-96.21a4.73,4.73,0,0,1,6.5,0l.16.16a4.42,4.42,0,0,1-.16,6.23L36.49,115.44c-.65.61-1.28,1.25-1.89,1.89a52.06,52.06,0,0,0,1.93,73.51c21.65,20.83,56.85,20.83,78.48,0l69.23-66.62a.83.83,0,0,1,.21-.16,4.73,4.73,0,0,1,6.32.16l.15.15a4.42,4.42,0,0,1-.15,6.25l-69.22,66.6A66.4,66.4,0,0,1,75.8,215.43ZM133.32,13.55a2.68,2.68,0,0,0-1.88.75l-100,96.21a58.82,58.82,0,0,0-2.2,83.07c.7.75,1.44,1.49,2.2,2.2a64.59,64.59,0,0,0,88.73,0l69.22-66.6a2.41,2.41,0,0,0,.1-3.4l-.12-.11a2.7,2.7,0,0,0-3.72,0l-.18.13-69.08,66.47c-22.39,21.56-58.83,21.56-81.24,0a54.07,54.07,0,0,1-2-76.33c.64-.67,1.3-1.34,2-2L135.18,17.78a2.39,2.39,0,0,0,.1-3.38l-.12-.12A2.65,2.65,0,0,0,133.32,13.55Z" transform="translate(0 0.01)"/>
      </g>
      <g>
        <path class="cls-1" d="M162.37,24a3.68,3.68,0,0,0,2.56-1L181.6,7a3.41,3.41,0,0,0,.12-4.82L181.6,2a3.74,3.74,0,0,0-5.13,0L159.81,18a3.41,3.41,0,0,0-.13,4.81h0l.13.13A3.68,3.68,0,0,0,162.37,24Z" transform="translate(0 0.01)"/>
        <path class="cls-1" d="M162.41,25h-.08a4.68,4.68,0,0,1-3.21-1.27l-.15-.15,0,0h0a4.4,4.4,0,0,1,.17-6.22l16.66-16a4.74,4.74,0,0,1,6.51,0l.14.14a4.42,4.42,0,0,1-.14,6.25l-16.67,16A4.64,4.64,0,0,1,162.41,25Zm0-2h0a2.63,2.63,0,0,0,1.83-.73l16.67-16A2.42,2.42,0,0,0,181,2.82l-.11-.1a2.72,2.72,0,0,0-3.73,0l-16.66,16a2.4,2.4,0,0,0-.75,1.68,2.35,2.35,0,0,0,.65,1.71l.12.12a2.68,2.68,0,0,0,1.84.71Z" transform="translate(0 0.01)"/>
      </g>
      <g>
        <path class="cls-1" d="M78.34,101.34a3.74,3.74,0,0,0,5.13,0l66-63.54a3.41,3.41,0,0,0,.12-4.82l-.12-.12a3.74,3.74,0,0,0-5.13,0l-66,63.55a3.39,3.39,0,0,0-.14,4.79Z" transform="translate(0 0.01)"/>
        <path class="cls-1" d="M80.9,103.35a4.71,4.71,0,0,1-3.25-1.28l0,0-.14-.14a4.42,4.42,0,0,1,.16-6.23l66-63.54a4.75,4.75,0,0,1,6.51,0l.14.14a4.42,4.42,0,0,1-.14,6.25l-66,63.54A4.74,4.74,0,0,1,80.9,103.35ZM79,100.62a2.75,2.75,0,0,0,3.75,0l66-63.53a2.42,2.42,0,0,0,.09-3.41l-.11-.1a2.71,2.71,0,0,0-3.73,0L79,97.13a2.39,2.39,0,0,0-.1,3.38Z" transform="translate(0 0.01)"/>
      </g>
      <g>
        <path class="cls-1" d="M179.61,63.06l-6.34,6.18a3.39,3.39,0,0,0-.14,4.79l.14.14a3.7,3.7,0,0,0,5.12,0L184.77,68a3.39,3.39,0,0,0,.14-4.79l-.14-.14A3.71,3.71,0,0,0,179.61,63.06Z" transform="translate(0 0.01)"/>
        <path class="cls-1" d="M175.83,76.2a4.65,4.65,0,0,1-3.25-1.31l-.16-.15a4.41,4.41,0,0,1,.16-6.23l6.33-6.17h0a4.7,4.7,0,0,1,6.55.06l.15.14a4.41,4.41,0,0,1-.16,6.23l-6.38,6.13A4.65,4.65,0,0,1,175.83,76.2Zm4.47-12.42L174,70a2.38,2.38,0,0,0-.11,3.38l.12.12a2.69,2.69,0,0,0,3.72,0l6.38-6.14a2.39,2.39,0,0,0,.1-3.38l-.12-.12A2.71,2.71,0,0,0,180.3,63.78Z" transform="translate(0 0.01)"/>
      </g>
      <g>
        <path class="cls-1" d="M128.33,117.38a3.74,3.74,0,0,0,5.13,0l29-28a3.4,3.4,0,0,0,.12-4.81h0l-.12-.12a3.74,3.74,0,0,0-5.13,0l-29,28a3.41,3.41,0,0,0-.12,4.82l.12.12Z" transform="translate(0 0.01)"/>
        <path class="cls-1" d="M130.89,119.39a4.64,4.64,0,0,1-3.14-1.19l-.13-.1-.12-.12a4.42,4.42,0,0,1,.14-6.25l29-28a4.74,4.74,0,0,1,6.51,0l.14.14,0,0a4.38,4.38,0,0,1-.18,6.19l-29,28A4.74,4.74,0,0,1,130.89,119.39Zm-1.94-2.8.07.06a2.74,2.74,0,0,0,3.75,0l29-28a2.4,2.4,0,0,0,.75-1.68,2.44,2.44,0,0,0-.66-1.72l-.11-.1a2.72,2.72,0,0,0-3.73,0l-29,28a2.42,2.42,0,0,0-.09,3.41Z" transform="translate(0 0.01)"/>
      </g>
      <g>
        <path class="cls-1" d="M133.46,77.9a3.74,3.74,0,0,0-5.13,0l-28.2,27.16a3.39,3.39,0,0,0-.14,4.79l.14.14a3.72,3.72,0,0,0,5.13,0l28.2-27.14a3.39,3.39,0,0,0,.14-4.79l-.14-.14Z" transform="translate(0 0.01)"/>
        <path class="cls-1" d="M102.69,112a4.65,4.65,0,0,1-3.25-1.31l-.16-.16a4.39,4.39,0,0,1,.16-6.22l28.2-27.15a4.74,4.74,0,0,1,6.51,0l.13.15,0,0a4.41,4.41,0,0,1-.16,6.23L106,110.71A4.7,4.7,0,0,1,102.69,112ZM130.9,77.88a2.71,2.71,0,0,0-1.88.75l-28.2,27.15a2.39,2.39,0,0,0-.1,3.38l.12.13a2.71,2.71,0,0,0,3.73,0l28.2-27.14a2.39,2.39,0,0,0,.1-3.38l-.12-.12-.08-.09A2.7,2.7,0,0,0,130.9,77.88Z" transform="translate(0 0.01)"/>
      </g>
      <g>
        <path class="cls-1" d="M224.47,59.4a3.72,3.72,0,0,0-5.12,0L136,139.58a3.4,3.4,0,0,0-.12,4.81h0l.12.12a3.72,3.72,0,0,0,5.13,0l83.32-80.18a3.39,3.39,0,0,0,.14-4.79Z" transform="translate(0 0.01)"/>
        <path class="cls-1" d="M138.58,146.54a4.65,4.65,0,0,1-3.25-1.31l-.14-.13a4.4,4.4,0,0,1-1.23-3.17,4.36,4.36,0,0,1,1.37-3.07l83.33-80.18a4.73,4.73,0,0,1,6.5,0l0,0,.14.14a4.41,4.41,0,0,1-.16,6.23l-83.32,80.17A4.66,4.66,0,0,1,138.58,146.54Zm83.33-87.16a2.7,2.7,0,0,0-1.87.75L136.71,140.3A2.4,2.4,0,0,0,136,142a2.44,2.44,0,0,0,.66,1.72l.11.1a2.7,2.7,0,0,0,3.73,0l83.32-80.18a2.39,2.39,0,0,0,.1-3.38l-.11-.11A2.67,2.67,0,0,0,221.91,59.38Z" transform="translate(0 0.01)"/>
      </g>
      <g>
        <path class="cls-1" d="M105.32,130.3a6.61,6.61,0,0,0-6.45-2.42l-20.26,3.65L64,117.53a6.69,6.69,0,0,0-6.72-1.47,6.35,6.35,0,0,0-4.4,5.15l-2.6,19.67-18.33,9a6.21,6.21,0,0,0,.18,11.31l18.62,8.5L54,189.27a6.35,6.35,0,0,0,4.54,5,6.76,6.76,0,0,0,2,.28,6.59,6.59,0,0,0,4.74-2l14.16-14.41,20.36,3a6.62,6.62,0,0,0,6.37-2.6,6,6,0,0,0,.39-6.65l-9.87-17.42L106,136.78a6.09,6.09,0,0,0-.6-6.63Zm-16,22.81a3.33,3.33,0,0,0,.06,3.24l10.1,17.83-20.89-3.12a3.69,3.69,0,0,0-3.19,1L60.87,186.87l-3.35-20a3.49,3.49,0,0,0-2-2.6l-19.07-8.7,18.82-9.32a3.51,3.51,0,0,0,1.94-2.65l2.66-20.15,15,14.33a3.72,3.72,0,0,0,3.22,1L98.87,135Z" transform="translate(0 0.01)"/>
        <path class="cls-1" d="M60.5,195.55a7.94,7.94,0,0,1-2.22-.32A7.4,7.4,0,0,1,53,189.45l-3.2-19.07L31.71,162.1A7.2,7.2,0,0,1,31.52,149l17.83-8.75,2.53-19.14a7.4,7.4,0,0,1,5.09-6,7.7,7.7,0,0,1,7.71,1.7l14.25,13.66,19.76-3.56a7.54,7.54,0,0,1,7,2.29.92.92,0,0,1,.52.34,7.08,7.08,0,0,1,.7,7.72l-9.05,17.2,9.6,17a7,7,0,0,1-.46,7.74,7.6,7.6,0,0,1-7.33,3L79.82,179.2,66,193.25a7.63,7.63,0,0,1-5.44,2.3Zm-1.09-78.84a5.74,5.74,0,0,0-1.82.3,5.37,5.37,0,0,0-3.73,4.34L51.26,141a1,1,0,0,1-.55.77l-18.33,9a5.19,5.19,0,0,0,.14,9.49l18.64,8.51a1,1,0,0,1,.57.75L55,189.1a5.41,5.41,0,0,0,3.82,4.21,6.27,6.27,0,0,0,1.72.24h0a5.63,5.63,0,0,0,4-1.7l14.17-14.41a1,1,0,0,1,.86-.29l20.36,3a5.62,5.62,0,0,0,5.42-2.21,5,5,0,0,0,.33-5.54L95.84,155a1,1,0,0,1,0-1l9.31-17.69a5.12,5.12,0,0,0-.18-5.08,1,1,0,0,1-.43-.31,5.57,5.57,0,0,0-5.47-2.06l-20.27,3.65a1,1,0,0,1-.87-.26l-14.62-14A5.71,5.71,0,0,0,59.41,116.71Zm1.46,71.16a.79.79,0,0,1-.3-.05,1,1,0,0,1-.69-.78l-3.35-20a2.48,2.48,0,0,0-1.42-1.86L36,156.48a1,1,0,0,1,0-1.81l18.82-9.32a2.5,2.5,0,0,0,1.39-1.89l2.66-20.14a1,1,0,0,1,1.68-.59l15,14.33a2.72,2.72,0,0,0,2.36.73L98.69,134a1,1,0,0,1,1,.39,1,1,0,0,1,.08,1.06l-9.55,18.16h0a2.35,2.35,0,0,0,0,2.27l10.11,17.84a1,1,0,0,1-1,1.48l-20.89-3.12a2.68,2.68,0,0,0-2.34.72l-14.52,14.8A1,1,0,0,1,60.87,187.87ZM38.78,155.53l17.16,7.83a4.52,4.52,0,0,1,2.57,3.34l3,18.07,13.16-13.41a4.73,4.73,0,0,1,4.07-1.29l18.84,2.82-9.09-16a4.3,4.3,0,0,1-.07-4.2L97,136.31l-18.76,3.45a4.73,4.73,0,0,1-4.1-1.26l-13.57-13-2.4,18.2a4.52,4.52,0,0,1-2.49,3.42Zm50.54-2.42h0Z" transform="translate(0 0.01)"/>
      </g>
      <g>
        <ellipse class="cls-1" cx="77.14" cy="149.09" rx="3.62" ry="3.49"/>
        <path class="cls-1" d="M77.14,153.57a4.49,4.49,0,1,1,4.62-4.49A4.56,4.56,0,0,1,77.14,153.57Zm0-7a2.49,2.49,0,1,0,2.62,2.49A2.57,2.57,0,0,0,77.14,146.59Z" transform="translate(0 0.01)"/>
      </g>
      <g>
        <ellipse class="cls-1" cx="62.64" cy="156.07" rx="3.62" ry="3.49"/>
        <path class="cls-1" d="M62.64,160.55a4.49,4.49,0,1,1,4.62-4.49A4.56,4.56,0,0,1,62.64,160.55Zm0-7a2.49,2.49,0,1,0,2.62,2.49A2.57,2.57,0,0,0,62.64,153.57Z" transform="translate(0 0.01)"/>
      </g>
      <g>
        <path class="cls-1" d="M78.42,157.53a3.68,3.68,0,0,0-4.79,1.74,1.5,1.5,0,0,1-2,.71h0a3.7,3.7,0,0,0-4.8,1.74,3.45,3.45,0,0,0,1.7,4.57h.11a9,9,0,0,0,3.63.72,8.78,8.78,0,0,0,8-5,3.43,3.43,0,0,0-1.68-4.55l-.14-.06Z" transform="translate(0 0.01)"/>
        <path class="cls-1" d="M72.14,168a9.88,9.88,0,0,1-3.71-.72,1.17,1.17,0,0,1-.32-.09,4.46,4.46,0,0,1-2.19-5.9A4.7,4.7,0,0,1,72,159.06a.51.51,0,0,0,.7-.22,4.67,4.67,0,0,1,5.56-2.43,1,1,0,0,1,.55.07l.14.06a4.44,4.44,0,0,1,2.2,5.89A9.82,9.82,0,0,1,72.34,168Zm-3.35-2.71a1.09,1.09,0,0,1,.24.07,7.93,7.93,0,0,0,3.23.64h.06a7.82,7.82,0,0,0,7.05-4.43,2.43,2.43,0,0,0-.9-3.05.93.93,0,0,1-.46-.09,2.65,2.65,0,0,0-3.48,1.27A2.47,2.47,0,0,1,73.11,161a2.44,2.44,0,0,1-1.91-.1,2.69,2.69,0,0,0-3.47,1.29A2.43,2.43,0,0,0,68.79,165.3Z" transform="translate(0 0.01)"/>
      </g>
    </g>
  </g>
  <g id="Layer_2" data-name="Layer 2">
    <g>
      <g>
        <path class="cls-1" d="M255.87,149.29h-5.12V73.74h44.94V79H255.87V118.1h35.4v5.21h-35.4Z" transform="translate(0 0.01)"/>
        <path class="cls-1" d="M255.87,151.29h-5.12a2,2,0,0,1-2-2V73.74a2,2,0,0,1,2-2h44.94a2,2,0,0,1,2,2V79a2,2,0,0,1-2,2H257.87V116.1h33.4a2,2,0,0,1,2,2v5.21a2,2,0,0,1-2,2h-33.4v24A2,2,0,0,1,255.87,151.29Zm-3.12-4h1.12v-24a2,2,0,0,1,2-2h33.4V120.1h-33.4a2,2,0,0,1-2-2V79a2,2,0,0,1,2-2h37.82V75.74H252.75Z" transform="translate(0 0.01)"/>
      </g>
      <g>
        <path class="cls-1" d="M346.36,149.15H306.93V73.64H312v70.21h34.27Z" transform="translate(0 0.01)"/>
        <path class="cls-1" d="M346.36,151.15H306.93a2,2,0,0,1-2-2V73.64a2,2,0,0,1,2-2H312a2,2,0,0,1,2,2v68.21h32.27a2,2,0,0,1,2,2l.05,5.3a2,2,0,0,1-2,2Zm-37.43-4h35.41v-1.3H312a2,2,0,0,1-2-2V75.64h-1.11Z" transform="translate(0 0.01)"/>
      </g>
      <g>
        <path class="cls-1" d="M357.23,149.06l30.35-76.31,30,76.31H412l-6.43-16.3h-36.3l-6.53,16.3Zm14.14-21.53h32.16l-16-40.7Z" transform="translate(0 0.01)"/>
        <path class="cls-1" d="M417.58,151.06H412a2,2,0,0,1-1.86-1.27l-5.93-15H370.66l-6,15a2,2,0,0,1-1.86,1.26h-5.55a2,2,0,0,1-1.86-2.74L385.72,72a2,2,0,0,1,1.86-1.26h0A2,2,0,0,1,389.44,72l30,76.31a2,2,0,0,1-1.86,2.73Zm-4.18-4h1.24L387.57,78.19l-27.39,68.87h1.25l6-15a2,2,0,0,1,1.86-1.26h36.3a2,2,0,0,1,1.86,1.27Zm-9.87-17.53H371.37a2,2,0,0,1-1.86-2.74l16.16-40.7a2.06,2.06,0,0,1,1.86-1.26,2,2,0,0,1,1.86,1.27l16,40.7a2,2,0,0,1-1.86,2.73Zm-29.21-4h26.27L387.52,92.27Z" transform="translate(0 0.01)"/>
      </g>
      <g>
        <path class="cls-1" d="M440.24,143.85a16,16,0,0,0,15.29-12.1,16.41,16.41,0,0,0-7.51-18.3l-17-10a16.09,16.09,0,0,1-7.19-18A15.76,15.76,0,0,1,439,73.58h1.63a15.6,15.6,0,0,1,13.49,7.87l-4.44,2.66a10.47,10.47,0,0,0-9-5.21H439a10.41,10.41,0,0,0-10.14,7.94A10.9,10.9,0,0,0,433.79,99l17,10a21.75,21.75,0,0,1,9.79,24.3,21.26,21.26,0,0,1-20.43,15.95h-.28A21,21,0,0,1,423,140.55l4.13-3.22a15.9,15.9,0,0,0,12.73,6.5Z" transform="translate(0 0.01)"/>
        <path class="cls-1" d="M439.87,151.2a23.11,23.11,0,0,1-18.48-9.47,2,2,0,0,1,.39-2.76l4.13-3.22a2,2,0,0,1,1.51-.4,2,2,0,0,1,1.33.8,14,14,0,0,0,11.13,5.68l.39,0a14,14,0,0,0,13.32-10.59A14.46,14.46,0,0,0,447,115.17l-17-10a18.17,18.17,0,0,1-8.11-20.25,17.76,17.76,0,0,1,17-13.34h1.65a17.64,17.64,0,0,1,15.23,8.88,2,2,0,0,1-.71,2.71l-4.44,2.66a2,2,0,0,1-1.53.22,2,2,0,0,1-1.23-.94,8.51,8.51,0,0,0-7.28-4.21H439a8.41,8.41,0,0,0-8.18,6.42,9,9,0,0,0,4,9.92l17,10a23.84,23.84,0,0,1,10.71,26.54,23.27,23.27,0,0,1-22.34,17.43Zm-14-10.32a19.11,19.11,0,0,0,14,6.32h.27a19.26,19.26,0,0,0,18.49-14.45,19.84,19.84,0,0,0-8.88-22.09l-17-10a13,13,0,0,1-5.84-14.34A12.37,12.37,0,0,1,439,76.9h1.65a12.54,12.54,0,0,1,9.57,4.54l1-.63a13.66,13.66,0,0,0-10.67-5.23H439a13.77,13.77,0,0,0-13.19,10.36,14.15,14.15,0,0,0,6.29,15.8l17,10a18.46,18.46,0,0,1,8.43,20.53,18,18,0,0,1-17.19,13.59h-.14l-.37,0a17.91,17.91,0,0,1-12.92-5.73Z" transform="translate(0 0.01)"/>
      </g>
      <g>
        <path class="cls-1" d="M477.43,123.32v25.74h-5.11V73.53h5.11V118h41.23V73.53h5.11v75.53h-5.11V123.32Z" transform="translate(0 0.01)"/>
        <path class="cls-1" d="M523.77,151.06h-5.11a2,2,0,0,1-2-2V125.32H479.43v23.74a2,2,0,0,1-2,2h-5.11a2,2,0,0,1-2-2V73.53a2,2,0,0,1,2-2h5.11a2,2,0,0,1,2,2V116h37.23V73.53a2,2,0,0,1,2-2h5.11a2,2,0,0,1,2,2v75.53A2,2,0,0,1,523.77,151.06Zm-3.11-4h1.11V75.53h-1.11V118a2,2,0,0,1-2,2H477.43a2,2,0,0,1-2-2V75.53h-1.11v71.53h1.11V123.32a2,2,0,0,1,2-2h41.23a2,2,0,0,1,2,2Z" transform="translate(0 0.01)"/>
      </g>
      <g>
        <path class="cls-1" d="M586.55,124.1a24.77,24.77,0,0,1-24.49,25h-27.3V73.53h27.11a15.18,15.18,0,0,1,14.25,10.2,15.54,15.54,0,0,1-4.79,17.08,25.24,25.24,0,0,1,15.34,23.29ZM539.81,99h22a10.09,10.09,0,0,0,10-10,10.2,10.2,0,0,0-2.94-7.1,9.83,9.83,0,0,0-7-3h-22Zm0,44.68H562a19.75,19.75,0,0,0,0-39.49H539.81Z" transform="translate(0 0.01)"/>
        <path class="cls-1" d="M534.76,151.1a2,2,0,0,1-2-2V73.53a2,2,0,0,1,2-2h27.11A17.2,17.2,0,0,1,578,83.07a17.63,17.63,0,0,1-3.27,17.19,27.17,27.17,0,0,1,13.93,23.85,1.91,1.91,0,0,1-.12.68,26.8,26.8,0,0,1-26.47,26.31Zm2-4h25.3a22.8,22.8,0,0,0,22.49-23,2.15,2.15,0,0,1,.11-.68,23.18,23.18,0,0,0-14.11-20.79,2,2,0,0,1-.49-3.38,13.59,13.59,0,0,0,4.17-14.88,13.19,13.19,0,0,0-12.37-8.86h-25.1Zm3-1.47a2,2,0,0,1-2-2V104.14a2,2,0,0,1,2-2H562a21.75,21.75,0,0,1,0,43.49Zm2-4H562a17.75,17.75,0,0,0,0-35.49H541.81Zm-2-40.68a2,2,0,0,1-2-2l.06-20.1a2,2,0,0,1,2-2h22a11.91,11.91,0,0,1,8.44,3.61A12,12,0,0,1,561.83,101Zm2-4h20a8,8,0,0,0,5.64-13.7,7.86,7.86,0,0,0-5.59-2.4h-20Z" transform="translate(0 0.01)"/>
      </g>
      <g>
        <path class="cls-1" d="M592.09,149.06l30.34-76.31,30,76.31h-5.56l-6.42-16.3H604.13l-6.52,16.3Zm14.14-21.53h32.16l-16-40.7Z" transform="translate(0 0.01)"/>
        <path class="cls-1" d="M652.43,151.06h-5.56a2,2,0,0,1-1.86-1.27l-5.92-15H605.48l-6,15a2,2,0,0,1-1.86,1.26h-5.52a2,2,0,0,1-1.86-2.74L620.57,72a2,2,0,0,1,1.86-1.26h0A2,2,0,0,1,624.29,72l30,76.31a2,2,0,0,1-1.86,2.73Zm-4.2-4h1.26L622.42,78.19,595,147.06h1.22l6-15a2,2,0,0,1,1.86-1.26h36.32a2,2,0,0,1,1.86,1.27Zm-9.84-17.53H606.23a2,2,0,0,1-1.86-2.74l16.16-40.7a2,2,0,0,1,1.86-1.26h0a2,2,0,0,1,1.86,1.27l16,40.7a2,2,0,0,1-1.86,2.73Zm-29.21-4h26.27L622.38,92.27Z" transform="translate(0 0.01)"/>
      </g>
      <g>
        <path class="cls-1" d="M689.66,144a31.47,31.47,0,0,0,20.21-7.42l3.26,4.1A36.66,36.66,0,0,1,669,142.85a38.2,38.2,0,0,1-15-42.37,36.7,36.7,0,0,1,58.2-18.85L709,85.73a31.51,31.51,0,0,0-19.58-6.88c-17.62,0-31.87,14.53-31.87,32.49s14.25,32.5,31.87,32.5Z" transform="translate(0 0.01)"/>
        <path class="cls-1" d="M689.56,151.15a38.54,38.54,0,0,1-21.71-6.65,40.09,40.09,0,0,1-15.8-44.59,38.71,38.71,0,0,1,61.37-19.85,2,2,0,0,1,.34,2.79L710.61,87a2.07,2.07,0,0,1-1.35.77,2,2,0,0,1-1.49-.43,29.71,29.71,0,0,0-18.33-6.44c-16.47,0-29.87,13.68-29.87,30.49s13.4,30.5,29.87,30.5a2,2,0,0,1,.64.11,29.54,29.54,0,0,0,18.5-6.95,2,2,0,0,1,2.86.29l3.26,4.09a2,2,0,0,1-.29,2.78A38.63,38.63,0,0,1,689.56,151.15Zm-.23-75.51A34.76,34.76,0,0,0,655.9,101a36.09,36.09,0,0,0,14.2,40.18,34.83,34.83,0,0,0,40.22-.89l-.77-1A33.54,33.54,0,0,1,689.67,146h0a2.08,2.08,0,0,1-.66-.11c-18.48-.25-33.43-15.63-33.43-34.5,0-19,15.19-34.49,33.87-34.49a33.7,33.7,0,0,1,19.2,6.1l.71-.94a34.9,34.9,0,0,0-20-6.37Z" transform="translate(0 0.01)"/>
      </g>
      <g>
        <path class="cls-1" d="M738.32,111.68l32.85,37.38h-7l-29.3-33.39-5.66,6.54v26.85h-5.14V73.53h5.11v40.59l35-40.59H771Z" transform="translate(0 0.01)"/>
        <path class="cls-1" d="M771.17,151.06h-7a2,2,0,0,1-1.5-.68l-27.79-31.67L731.21,123v26.1a2,2,0,0,1-2,2h-5.14a2,2,0,0,1-2-2V73.53a2,2,0,0,1,2-2h5.11a2,2,0,0,1,2,2v35.21l31.49-36.52a2,2,0,0,1,1.51-.69H771a2,2,0,0,1,1.52,3.3L741,111.66l31.7,36.08a2,2,0,0,1-1.5,3.32Zm-6.09-4h1.67L736.82,113a2,2,0,0,1,0-2.62l29.88-34.85H765.1l-34.41,39.9a2,2,0,0,1-3.51-1.31V75.53h-1.11v71.53h1.14V122.21a2,2,0,0,1,.49-1.31l5.66-6.54a2,2,0,0,1,1.5-.69h0a2,2,0,0,1,1.5.68Z" transform="translate(0 0.01)"/>
      </g>
    </g>
  </g>
</svg>
