<svg xmlns="http://www.w3.org/2000/svg" xmlns:xlink="http://www.w3.org/1999/xlink" viewBox="0 0 496.8 437.23">
  <defs>
    <style>
      .cls-1 {
        fill: #662e91;
        stroke: #662e91;
        stroke-linecap: round;
        stroke-linejoin: round;
        stroke-width: 2px;
      }
    </style>
  </defs>
  <g id="Layer_1" data-name="Layer 1">
    <g>
      <path class="cls-1" d="M402.47,283.61a3.74,3.74,0,0,0,5.13,0,3.39,3.39,0,0,0,0-4.93L403.74,275l3.86-3.71a3.4,3.4,0,0,0,0-4.94,3.74,3.74,0,0,0-5.13,0L398.61,270l-3.86-3.72a3.72,3.72,0,0,0-5.12,0,3.4,3.4,0,0,0,0,4.94l3.86,3.71-3.86,3.72a3.39,3.39,0,0,0,0,4.93,3.72,3.72,0,0,0,5.12,0l3.86-3.71Z" transform="translate(-251.6 -179.89)"/>
      <path class="cls-1" d="M559.88,367.5a3.72,3.72,0,0,0-5.13,0l-3.86,3.71L547,367.5a3.7,3.7,0,0,0-5.12,0,3.39,3.39,0,0,0,0,4.93l3.86,3.72-3.86,3.71a3.4,3.4,0,0,0,0,4.94,3.72,3.72,0,0,0,5.12,0l3.86-3.72,3.86,3.72a3.74,3.74,0,0,0,5.13,0,3.4,3.4,0,0,0,0-4.94L556,376.15l3.86-3.72a3.39,3.39,0,0,0,0-4.93Z" transform="translate(-251.6 -179.89)"/>
      <path class="cls-1" d="M454.89,213.83a3.74,3.74,0,0,0,5.13,0l3.86-3.72,3.86,3.72a3.72,3.72,0,0,0,5.12,0,3.4,3.4,0,0,0,0-4.94L469,205.18l3.86-3.72a3.39,3.39,0,0,0,0-4.93,3.72,3.72,0,0,0-5.12,0l-3.86,3.71L460,196.53a3.74,3.74,0,0,0-5.13,0,3.39,3.39,0,0,0,0,4.93l3.86,3.72-3.86,3.71a3.4,3.4,0,0,0,0,4.94Z" transform="translate(-251.6 -179.89)"/>
      <ellipse class="cls-1" cx="147.01" cy="197.98" rx="3.63" ry="3.49"/>
      <ellipse class="cls-1" cx="179.64" cy="58.42" rx="3.63" ry="3.49"/>
      <ellipse class="cls-1" cx="139.76" cy="20.04" rx="3.63" ry="3.49"/>
      <ellipse class="cls-1" cx="331.92" cy="173.56" rx="3.63" ry="3.49"/>
      <ellipse class="cls-1" cx="335.55" cy="33.99" rx="3.63" ry="3.49"/>
      <path class="cls-1" d="M571.66,304.9l-69.23,66.62c-22,21.18-57.84,21.18-79.86,0a53,53,0,0,1,0-76.86l100-96.22a3.39,3.39,0,0,0,0-4.93,3.72,3.72,0,0,0-5.12,0l-100,96.22a59.76,59.76,0,0,0,0,86.72,65.57,65.57,0,0,0,90.11,0l69.22-66.61a3.4,3.4,0,0,0,0-4.94,3.72,3.72,0,0,0-5.12,0Z" transform="translate(-251.6 -179.89)"/>
      <path class="cls-1" d="M549.1,203.9a3.67,3.67,0,0,0,2.56-1l16.67-16a3.41,3.41,0,0,0,0-4.94,3.74,3.74,0,0,0-5.13,0l-16.66,16a3.4,3.4,0,0,0,0,4.94A3.68,3.68,0,0,0,549.1,203.9Z" transform="translate(-251.6 -179.89)"/>
      <path class="cls-1" d="M465.07,281.28a3.74,3.74,0,0,0,5.13,0l66-63.54a3.41,3.41,0,0,0,0-4.94,3.74,3.74,0,0,0-5.13,0l-66,63.55a3.39,3.39,0,0,0,0,4.93Z" transform="translate(-251.6 -179.89)"/>
      <path class="cls-1" d="M566.34,243,560,249.18a3.39,3.39,0,0,0,0,4.93,3.7,3.7,0,0,0,5.12,0l6.38-6.14a3.39,3.39,0,0,0,0-4.93A3.72,3.72,0,0,0,566.34,243Z" transform="translate(-251.6 -179.89)"/>
      <path class="cls-1" d="M515.06,297.32a3.74,3.74,0,0,0,5.13,0l29-28a3.4,3.4,0,0,0,0-4.93,3.74,3.74,0,0,0-5.13,0l-29.05,27.95a3.41,3.41,0,0,0,0,4.94Z" transform="translate(-251.6 -179.89)"/>
      <path class="cls-1" d="M520.19,257.84a3.74,3.74,0,0,0-5.13,0L486.86,285a3.39,3.39,0,0,0,0,4.93,3.71,3.71,0,0,0,5.13,0l28.2-27.14a3.39,3.39,0,0,0,0-4.93Z" transform="translate(-251.6 -179.89)"/>
      <path class="cls-1" d="M611.2,239.34a3.72,3.72,0,0,0-5.12,0l-83.33,80.18a3.4,3.4,0,0,0,0,4.93,3.71,3.71,0,0,0,5.13,0l83.32-80.18a3.39,3.39,0,0,0,0-4.93Z" transform="translate(-251.6 -179.89)"/>
      <path class="cls-1" d="M492.05,310.24a6.61,6.61,0,0,0-6.45-2.42l-20.26,3.65-14.62-14A6.69,6.69,0,0,0,444,296a6.35,6.35,0,0,0-4.38,5.15L437,320.82l-18.33,9.05a6.2,6.2,0,0,0,.18,11.31l18.62,8.5,3.28,19.58a6.37,6.37,0,0,0,4.54,5,6.91,6.91,0,0,0,1.95.28,6.6,6.6,0,0,0,4.74-2l14.16-14.41,20.36,3.05a6.63,6.63,0,0,0,6.37-2.6,6.05,6.05,0,0,0,.39-6.65l-9.87-17.42,9.31-17.69a6.09,6.09,0,0,0-.6-6.63Zm-16,22.81a3.33,3.33,0,0,0,.06,3.24l10.1,17.83L465.32,351a3.68,3.68,0,0,0-3.19,1.05l-14.5,14.76-3.35-20.05a3.5,3.5,0,0,0-2-2.6l-19.07-8.7L442,326.19a3.51,3.51,0,0,0,1.94-2.65l2.71-20.15,15,14.33a3.71,3.71,0,0,0,3.22.95l20.74-3.74Z" transform="translate(-251.6 -179.89)"/>
      <ellipse class="cls-1" cx="212.27" cy="149.13" rx="3.62" ry="3.49"/>
      <ellipse class="cls-1" cx="197.77" cy="156.11" rx="3.62" ry="3.49"/>
      <path class="cls-1" d="M465.15,337.47a3.67,3.67,0,0,0-4.79,1.74,1.5,1.5,0,0,1-2,.71,3.7,3.7,0,0,0-4.8,1.74,3.45,3.45,0,0,0,1.81,4.62A9,9,0,0,0,459,347a8.78,8.78,0,0,0,8-4.95,3.43,3.43,0,0,0-1.82-4.61Z" transform="translate(-251.6 -179.89)"/>
    </g>
  </g>
  <g id="Layer_2" data-name="Layer 2">
    <image width="2070" height="616" transform="translate(0 203.99) scale(0.24)" xlink:href="../../Documents/roku-logo.png"/>
    <g>
      <path class="cls-1" d="M258,616.12h-4.62V548h40.52v4.7H258V588h31.88v4.7H258Z" transform="translate(-251.6 -179.89)"/>
      <path class="cls-1" d="M339.56,616H304V547.91h4.61v63.31h30.9Z" transform="translate(-251.6 -179.89)"/>
      <path class="cls-1" d="M349.36,615.92l27.37-68.81,27.07,68.81h-5L393,601.22H360.25l-5.89,14.7Zm12.75-19.41h29l-14.42-36.7Z" transform="translate(-251.6 -179.89)"/>
      <path class="cls-1" d="M424.21,611.22A14.42,14.42,0,0,0,438,600.31a14.79,14.79,0,0,0-6.77-16.5l-15.3-9a14.51,14.51,0,0,1-6.48-16.2,14.21,14.21,0,0,1,13.64-10.7h1.47a14.07,14.07,0,0,1,12.16,7.1l-4,2.4a9.44,9.44,0,0,0-8.14-4.7h-1.47a9.4,9.4,0,0,0-9.13,7.1,9.83,9.83,0,0,0,4.42,10.9l15.3,9a19.61,19.61,0,0,1,8.83,21.91A19.17,19.17,0,0,1,424.11,616h-.2a18.93,18.93,0,0,1-15.2-7.8l3.72-2.9a14.33,14.33,0,0,0,11.48,5.9Z" transform="translate(-251.6 -179.89)"/>
      <path class="cls-1" d="M457.75,592.71v23.21h-4.61V547.81h4.61v40.1h37.18v-40.1h4.61v68.11h-4.61V592.71Z" transform="translate(-251.6 -179.89)"/>
      <path class="cls-1" d="M556.14,593.41a22.33,22.33,0,0,1-22.08,22.51H509.44V547.81h24.43a13.68,13.68,0,0,1,12.85,9.2,14,14,0,0,1-4.32,15.4,22.76,22.76,0,0,1,13.83,21ZM514,570.71h19.81a9.1,9.1,0,0,0,9-9,9.21,9.21,0,0,0-2.64-6.4,8.85,8.85,0,0,0-6.28-2.7H514.05ZM514,611h20a17.81,17.81,0,0,0,0-35.61H514Z" transform="translate(-251.6 -179.89)"/>
      <path class="cls-1" d="M561.14,615.92l27.36-68.81,27.08,68.81h-5l-5.79-14.7H572l-5.88,14.7Zm12.75-19.41h29l-14.42-36.7Z" transform="translate(-251.6 -179.89)"/>
      <path class="cls-1" d="M649.12,611.32a28.38,28.38,0,0,0,18.25-6.7l2.94,3.7a33.07,33.07,0,0,1-39.82,2A34.45,34.45,0,0,1,617,572.11a33.32,33.32,0,0,1,31.88-24.2,33,33,0,0,1,20.6,7.2l-2.84,3.7a28.43,28.43,0,0,0-17.66-6.2c-15.89,0-28.74,13.1-28.74,29.3s12.85,29.31,28.74,29.31Z" transform="translate(-251.6 -179.89)"/>
      <path class="cls-1" d="M693,582.21l29.62,33.71h-6.27l-26.49-30.11-5.1,5.9v24.21h-4.61V547.81h4.61v36.6l31.59-36.6h6.18Z" transform="translate(-251.6 -179.89)"/>
    </g>
  </g>
</svg>
