<?xml version="1.0" encoding="iso-8859-1"?>
<!-- Generator: Adobe Illustrator 19.0.0, SVG Export Plug-In . SVG Version: 6.00 Build 0)  -->
<svg version="1.1" id="Layer_1" xmlns="http://www.w3.org/2000/svg" xmlns:xlink="http://www.w3.org/1999/xlink" x="0px" y="0px"
	 viewBox="0 0 512 512" style="enable-background:new 0 0 512 512;" xml:space="preserve">
<g>
	<g>
		<path d="M512,322.656V95.595H288.619l53.145-73.715L314.677,2.353L256,83.741L197.323,2.353L170.236,21.88l53.144,73.715H0
			v379.548h40.07v34.504h109.078v-34.504h213.704v34.504H471.93v-34.504H512V356.047H358.4v63.443H55.652V151.247H358.4v171.409H512
			z M460.8,382.76c9.22,0,16.696,7.475,16.696,16.696s-7.475,16.696-16.696,16.696s-16.696-7.475-16.696-16.696
			S451.58,382.76,460.8,382.76z M408.487,382.76c9.22,0,16.696,7.475,16.696,16.696s-7.475,16.696-16.696,16.696
			s-16.696-7.475-16.696-16.696S399.266,382.76,408.487,382.76z M446.33,127.651h28.939v33.391H446.33V127.651z M446.33,173.063
			h28.939v33.391H446.33V173.063z M446.33,218.475h28.939v33.391H446.33V218.475z M446.33,263.887h28.939v33.391H446.33V263.887z
			 M394.017,127.651h28.939v33.391h-28.939V127.651z M394.017,173.063h28.939v33.391h-28.939V173.063z M394.017,218.475h28.939
			v33.391h-28.939V218.475z M394.017,263.887h28.939v33.391h-28.939V263.887z"/>
	</g>
</g>
<g>
</g>
<g>
</g>
<g>
</g>
<g>
</g>
<g>
</g>
<g>
</g>
<g>
</g>
<g>
</g>
<g>
</g>
<g>
</g>
<g>
</g>
<g>
</g>
<g>
</g>
<g>
</g>
<g>
</g>
</svg>
