<?xml version="1.0" encoding="utf-8"?>
<!-- Generator: Adobe Illustrator 21.1.0, SVG Export Plug-In . SVG Version: 6.00 Build 0)  -->
<svg version="1.1" id="Layer_1" xmlns="http://www.w3.org/2000/svg" xmlns:xlink="http://www.w3.org/1999/xlink" x="0px" y="0px"
	 viewBox="0 0 24 24" style="enable-background:new 0 0 24 24;" xml:space="preserve">
<style type="text/css">
	.st0{fill:none;}
	.st1{fill:#FFFFFF;}
</style>
<path class="st0" d="M0,0h24v24H0V0z"/>
<path class="st1" d="M21,6h-7.6l3.3-3.3L16,2l-4,4L8,2L7.3,2.7L10.6,6H3C1.9,6,1,6.9,1,8v12c0,1.1,0.9,2,2,2h18c1.1,0,2-0.9,2-2V8
	C23,6.9,22.1,6,21,6z M21,20H3V8h18V20z M9,10v8l7-4L9,10z"/>
</svg>
